<?xml version="1.0" encoding="UTF-8" standalone="no" ?>
<!DOCTYPE svg PUBLIC "-//W3C//DTD SVG 1.1//EN" "http://www.w3.org/Graphics/SVG/1.1/DTD/svg11.dtd">
<svg xmlns="http://www.w3.org/2000/svg" xmlns:xlink="http://www.w3.org/1999/xlink" version="1.1" width="1080" height="1080" viewBox="0 0 1080 1080" xml:space="preserve">
<desc>Created with Fabric.js 5.2.4</desc>
<defs>
</defs>
<g transform="matrix(1 0 0 1 540 540)" id="792570f9-6e6a-415a-92fb-202be9d4f425"  >
<rect style="stroke: none; stroke-width: 1; stroke-dasharray: none; stroke-linecap: butt; stroke-dashoffset: 0; stroke-linejoin: miter; stroke-miterlimit: 4; fill: rgb(255,255,255); fill-rule: nonzero; opacity: 1; visibility: hidden;" vector-effect="non-scaling-stroke"  x="-540" y="-540" rx="0" ry="0" width="1080" height="1080" />
</g>
<g transform="matrix(1 0 0 1 540 540)" id="54b716c4-0e5f-4235-b117-514c70e2e02a"  >
</g>
<g transform="matrix(10.74 0 0 10.74 540 540)"  >
<g style="" vector-effect="non-scaling-stroke"   >
		<g transform="matrix(1 0 0 1 -2.95 3.93)"  >
<path style="stroke: none; stroke-width: 1; stroke-dasharray: none; stroke-linecap: butt; stroke-dashoffset: 0; stroke-linejoin: miter; stroke-miterlimit: 4; fill: rgb(0,0,0); fill-rule: nonzero; opacity: 1;" vector-effect="non-scaling-stroke"  transform=" translate(-77.27, -81.5)" d="M 72.0938 109 L 72.0938 90.9062 L 63.3125 54 L 74.2188 54 L 77.2812 72.625 L 80.3438 54 L 91.2188 54 L 82.4688 90.9062 L 82.4688 109 L 72.0938 109 Z" stroke-linecap="round" />
</g>
		<g transform="matrix(1 0 0 1 0 0)"  >
<path style="stroke: none; stroke-width: 1; stroke-dasharray: none; stroke-linecap: butt; stroke-dashoffset: 0; stroke-linejoin: miter; stroke-miterlimit: 4; fill: rgb(0,0,0); fill-rule: nonzero; opacity: 1;" vector-effect="non-scaling-stroke"  transform=" translate(-80.22, -77.57)" d="M 44.5296 125 L 44.5296 30.1424 C 44.8357 30.1424 45.7541 30.1643 47.2848 30.208 C 48.8592 30.208 50.7616 30.208 52.992 30.208 C 55.2224 30.1643 57.5403 30.1643 59.9456 30.208 C 62.3509 30.208 64.5595 30.2299 66.5712 30.2736 C 78.2043 30.4485 87.6288 32.3509 94.8448 35.9808 C 102.105 39.5669 107.418 44.7931 110.786 51.6592 C 114.197 58.5253 115.902 66.9659 115.902 76.9808 C 115.902 87.4768 114.066 96.2891 110.392 103.418 C 106.762 110.546 101.208 115.925 93.7296 119.555 C 86.2949 123.185 76.8267 125 65.3248 125 L 44.5296 125 Z M 56.9936 114.57 L 65.3248 114.57 C 73.1531 114.57 79.888 113.367 85.5296 110.962 C 91.1712 108.513 95.5008 104.555 98.5184 99.088 C 101.58 93.6213 103.11 86.3179 103.11 77.1776 C 103.11 68.0373 101.623 60.7995 98.6496 55.464 C 95.7195 50.1285 91.4773 46.3237 85.9232 44.0496 C 80.3691 41.7317 73.6779 40.5728 65.8496 40.5728 L 56.9936 40.5728 L 56.9936 114.57 Z" stroke-linecap="round" />
</g>
</g>
</g>
</svg>